ply
format ascii 1.0
comment Created by Blender 2.82 (sub 7) - www.blender.org, source file: 'curseforge.blend'
element vertex 86
property float x
property float y
property float z
property float nx
property float ny
property float nz
property float s
property float t
property uchar red
property uchar green
property uchar blue
property uchar alpha
element face 35
property list uchar uint vertex_indices
end_header
0.012051 -0.492005 0.000000 0.000000 0.000000 1.000000 0.000000 0.000000 217 114 0 255
-0.217220 -0.255216 0.000000 0.000000 0.000000 1.000000 0.000000 0.000000 217 114 0 255
-0.308891 0.025958 0.000000 0.000000 0.000000 1.000000 0.000000 0.000000 181 116 0 255
-0.448137 -0.228705 0.000000 0.000000 0.000000 1.000000 0.000000 0.000000 217 114 0 255
0.065704 -0.278100 0.000000 -0.000000 -0.000000 1.000000 0.000000 0.000000 216 114 0 255
0.290216 -0.251746 0.000000 0.000000 -0.000000 1.000000 0.000000 0.000000 217 114 0 255
0.384617 -0.295849 0.000000 0.000000 -0.000000 1.000000 0.000000 0.000000 217 114 0 255
0.319715 -0.085689 0.000000 0.000000 -0.000000 1.000000 0.000000 0.000000 218 118 34 255
0.152509 -0.067176 0.000000 0.000000 0.000000 1.000000 0.000000 0.000000 217 114 0 255
0.094025 0.056648 0.000000 0.000000 0.000000 1.000000 0.000000 0.000000 217 114 0 255
-0.021396 -0.050624 0.000000 0.000000 0.000000 1.000000 0.000000 0.000000 217 114 0 255
0.247562 0.016406 0.000000 0.000000 0.000000 1.000000 0.000000 0.000000 217 114 0 255
0.240498 0.062538 0.000000 0.000000 0.000000 1.000000 0.000000 0.000000 217 116 11 255
0.150292 0.129230 0.000000 0.000000 0.000000 1.000000 0.000000 0.000000 217 114 0 255
0.031236 0.063344 0.000000 0.000000 0.000000 1.000000 0.000000 0.000000 217 114 0 255
-0.175697 0.278612 0.000000 0.000000 0.000000 1.000000 0.000000 0.000000 219 154 71 255
-0.176331 0.137123 0.000000 0.000000 0.000000 1.000000 0.000000 0.000000 217 114 0 255
0.011290 0.393816 0.000000 0.000000 0.000000 1.000000 0.000000 0.000000 222 170 74 255
-0.082133 0.423423 0.000000 0.000000 0.000000 1.000000 0.000000 0.000000 222 170 74 255
0.110615 0.530331 0.000000 0.000000 -0.000000 1.000000 0.000000 0.000000 222 170 74 255
0.254914 0.012031 0.000000 0.000000 -0.000000 1.000000 0.000000 0.000000 0 0 0 94
0.121435 -0.242378 0.000000 0.000000 -0.000000 1.000000 0.000000 0.000000 0 0 0 94
0.212955 -0.237575 0.000000 0.000000 -0.000000 1.000000 0.000000 0.000000 0 0 0 0
0.290519 -0.091394 0.000000 0.000000 -0.000000 1.000000 0.000000 0.000000 6 3 2 0
0.418714 -0.308062 0.000000 0.000000 -0.000000 1.000000 0.000000 0.000000 0 0 0 94
0.011648 -0.529511 0.000000 0.000000 -0.000000 1.000000 0.000000 0.000000 3 1 1 94
0.047254 -0.632936 0.000000 0.000000 -0.000000 1.000000 0.000000 0.000000 0 0 0 0
0.454319 -0.411487 0.000000 0.000000 -0.000000 1.000000 0.000000 0.000000 2 0 0 0
0.012051 -0.492005 0.000000 -0.000000 -0.000000 1.000000 0.000000 0.000000 141 72 50 255
-0.448137 -0.228705 0.000000 -0.000000 -0.000000 1.000000 0.000000 0.000000 141 72 50 255
-0.494295 -0.240032 0.000000 -0.000000 -0.000000 1.000000 0.000000 0.000000 141 72 50 255
0.011648 -0.529511 0.000000 -0.000000 -0.000000 1.000000 0.000000 0.000000 141 72 50 255
-0.308891 0.025958 0.000000 -0.000000 0.000000 1.000000 0.000000 0.000000 141 72 50 255
-0.306333 0.053318 0.000000 -0.000000 0.000000 1.000000 0.000000 0.000000 141 72 50 255
-0.217220 -0.255216 0.000000 0.000000 0.000000 1.000000 0.000000 0.000000 141 72 50 255
-0.205813 -0.195930 0.000000 0.000000 0.000000 1.000000 0.000000 0.000000 141 72 50 255
-0.021396 -0.050624 0.000000 0.000000 0.000000 1.000000 0.000000 0.000000 153 78 54 255
-0.064357 -0.048140 0.000000 0.000000 0.000000 1.000000 0.000000 0.000000 153 78 54 255
-0.090119 -0.075055 0.000000 0.000000 0.000000 1.000000 0.000000 0.000000 151 77 53 255
-0.176331 0.137123 0.000000 -0.000000 -0.000000 1.000000 0.000000 0.000000 179 92 63 255
-0.199772 0.130731 0.000000 -0.000000 -0.000000 1.000000 0.000000 0.000000 169 86 59 255
-0.175697 0.278612 0.000000 -0.000000 0.000000 1.000000 0.000000 0.000000 184 94 65 255
-0.181005 0.292361 0.000000 -0.000000 0.000000 1.000000 0.000000 0.000000 184 94 65 255
0.031236 0.063344 0.000000 0.000000 0.000000 1.000000 0.000000 0.000000 183 93 65 255
-0.030577 0.160876 0.000000 0.000000 0.000000 1.000000 0.000000 0.000000 184 94 65 255
-0.082133 0.423423 0.000000 -0.000000 -0.000000 1.000000 0.000000 0.000000 184 94 65 255
-0.108694 0.435341 0.000000 -0.000000 -0.000000 1.000000 0.000000 0.000000 184 94 65 255
0.110615 0.530331 0.000000 -0.000000 0.000000 1.000000 0.000000 0.000000 183 93 65 255
0.140436 0.555684 0.000000 -0.000000 0.000000 1.000000 0.000000 0.000000 184 94 65 255
0.011290 0.393816 0.000000 0.000000 -0.000000 1.000000 0.000000 0.000000 182 92 64 255
0.026427 0.393116 0.000000 0.000000 -0.000000 1.000000 0.000000 0.000000 181 92 64 255
0.150292 0.129230 0.000000 0.000000 0.000000 1.000000 0.000000 0.000000 184 94 65 255
0.178439 0.127095 0.000000 0.000000 0.000000 1.000000 0.000000 0.000000 184 94 65 255
0.075038 0.308048 0.000000 0.000000 0.000000 1.000000 0.000000 0.000000 182 93 65 255
0.094025 0.056648 0.000000 0.000000 -0.000000 1.000000 0.000000 0.000000 184 94 65 255
0.120857 0.054492 0.000000 0.000000 -0.000000 1.000000 0.000000 0.000000 184 94 65 255
0.152509 -0.067176 0.000000 0.000000 0.000000 1.000000 0.000000 0.000000 162 83 57 255
0.240498 0.062538 0.000000 0.000000 0.000000 1.000000 0.000000 0.000000 179 91 63 255
0.244006 0.073141 0.000000 0.000000 0.000000 1.000000 0.000000 0.000000 184 94 65 255
0.211582 0.034421 0.000000 0.000000 0.000000 1.000000 0.000000 0.000000 172 88 61 255
0.163926 -0.022489 0.000000 0.000000 0.000000 1.000000 0.000000 0.000000 153 78 54 255
0.065704 -0.278100 0.000000 0.000000 0.000000 1.000000 0.000000 0.000000 141 72 50 255
0.290216 -0.251746 0.000000 0.000000 0.000000 1.000000 0.000000 0.000000 141 72 50 255
0.275675 -0.234284 0.000000 0.000000 0.000000 1.000000 0.000000 0.000000 141 72 50 255
0.212955 -0.237575 0.000000 0.000000 0.000000 1.000000 0.000000 0.000000 141 72 50 255
0.121435 -0.242378 0.000000 0.000000 0.000000 1.000000 0.000000 0.000000 141 72 50 255
0.319715 -0.085689 0.000000 -0.000000 0.000000 1.000000 0.000000 0.000000 142 72 50 255
0.317666 -0.058462 0.000000 -0.000000 0.000000 1.000000 0.000000 0.000000 143 72 50 255
0.384617 -0.295849 0.000000 0.000000 0.000000 1.000000 0.000000 0.000000 141 72 50 255
0.418714 -0.308062 0.000000 0.000000 0.000000 1.000000 0.000000 0.000000 141 72 50 255
0.140436 0.555684 0.000000 0.000000 -0.000000 1.000000 0.000000 0.000000 11 6 4 94
0.026427 0.393116 0.000000 0.000000 -0.000000 1.000000 0.000000 0.000000 0 0 0 94
0.075038 0.308048 0.000000 0.000000 -0.000000 1.000000 0.000000 0.000000 0 0 0 0
0.176041 0.452259 0.000000 0.000000 -0.000000 1.000000 0.000000 0.000000 0 0 0 0
-0.494295 -0.240032 0.000000 -0.000000 -0.000000 1.000000 0.000000 0.000000 0 0 0 94
-0.458689 -0.343457 0.000000 -0.000000 -0.000000 1.000000 0.000000 0.000000 1 0 0 0
0.178439 0.127095 0.000000 0.000000 -0.000000 1.000000 0.000000 0.000000 28 13 10 94
0.120857 0.054492 0.000000 0.000000 -0.000000 1.000000 0.000000 0.000000 0 0 0 94
0.163926 -0.022489 0.000000 0.000000 -0.000000 1.000000 0.000000 0.000000 0 0 0 0
0.211582 0.034421 0.000000 0.000000 -0.000000 1.000000 0.000000 0.000000 0 0 0 0
-0.064357 -0.048140 0.000000 -0.000000 -0.000000 1.000000 0.000000 0.000000 0 0 0 94
-0.199772 0.130731 0.000000 -0.000000 -0.000000 1.000000 0.000000 0.000000 0 0 0 94
-0.164167 0.027306 0.000000 -0.000000 -0.000000 1.000000 0.000000 0.000000 0 0 0 0
-0.090119 -0.075055 0.000000 -0.000000 -0.000000 1.000000 0.000000 0.000000 3 2 1 0
0.247562 0.016406 0.000000 0.000000 0.000000 1.000000 0.000000 0.000000 158 80 55 255
0.254914 0.012031 0.000000 0.000000 0.000000 1.000000 0.000000 0.000000 155 78 54 255
4 0 1 2 3
3 4 1 0
4 5 4 0 6
3 7 5 6
5 1 4 8 9 10
4 8 4 11 12
6 10 9 13 14 15 16
4 14 13 17 18
3 19 18 17
4 20 21 22 23
4 24 25 26 27
4 28 29 30 31
4 29 32 33 30
4 32 34 35 33
5 34 36 37 38 35
4 36 39 40 37
4 39 41 42 40
4 41 43 44 42
4 43 45 46 44
4 45 47 48 46
4 47 49 50 48
5 49 51 52 53 50
4 51 54 55 52
5 56 57 58 59 60
5 61 62 63 64 65
4 62 66 67 63
4 66 68 69 67
4 68 28 31 69
4 54 56 60 55
4 70 71 72 73
4 25 74 75 26
4 76 77 78 79
4 80 81 82 83
4 57 84 85 58
4 85 84 61 65
