ply
format ascii 1.0
comment Created by Blender 2.82 (sub 7) - www.blender.org, source file: 'download.blend'
element vertex 36
property float x
property float y
property float z
property float nx
property float ny
property float nz
property float s
property float t
property uchar red
property uchar green
property uchar blue
property uchar alpha
element face 27
property list uchar uint vertex_indices
end_header
0.471215 -0.500665 0.000000 -0.000000 0.000000 1.000000 1.000000 0.000000 4 72 4 255
0.000000 -0.372719 0.000000 -0.000000 0.000000 1.000000 0.500000 0.117466 19 117 8 255
0.000000 -0.500665 0.000000 -0.000000 0.000000 1.000000 0.500000 0.000000 4 72 4 255
0.000000 -0.319211 0.000000 -0.000000 0.000000 1.000000 0.500000 0.166590 4 101 12 255
0.179205 0.119960 0.000000 -0.000000 0.000000 1.000000 0.674183 0.487792 66 179 21 255
0.144934 0.119960 0.000000 -0.000000 0.000000 1.000000 0.644455 0.487793 72 191 23 255
0.000000 0.119960 0.000000 -0.000000 0.000000 1.000000 0.500000 0.569786 72 191 23 255
0.144934 0.588559 0.000000 -0.000000 0.000000 1.000000 0.644455 1.000000 110 197 72 255
0.000000 0.588559 0.000000 -0.000000 0.000000 1.000000 0.500000 1.000000 110 197 72 255
-0.471215 -0.500665 0.000000 0.000000 -0.000000 1.000000 1.000000 0.000000 4 72 4 255
-0.144934 0.119960 0.000000 -0.000000 0.000000 1.000000 0.644455 0.487793 80 183 30 255
-0.369837 0.119960 0.000000 -0.000000 0.000000 1.000000 0.839542 0.487792 31 115 11 255
-0.144934 0.588559 0.000000 -0.000000 0.000000 1.000000 0.644455 1.000000 110 197 72 255
0.000000 -0.500665 0.000000 0.000000 -0.000000 1.000000 0.500000 0.000000 0 0 0 89
-0.435818 -0.609932 0.000000 0.000000 -0.000000 1.000000 1.000000 0.000000 0 2 0 0
0.035396 -0.609932 0.000000 0.000000 -0.000000 1.000000 0.500000 0.000000 0 0 0 0
0.471215 -0.500665 0.000000 0.000000 -0.000000 1.000000 1.000000 0.000000 0 0 0 89
0.506611 -0.609932 0.000000 0.000000 -0.000000 1.000000 1.000000 0.000000 0 0 0 0
0.506611 -0.481985 0.000000 0.000000 0.000000 1.000000 1.000000 0.117466 0 0 0 0
0.471215 -0.372719 0.000000 0.000000 0.000000 1.000000 1.000000 0.117466 0 0 0 89
-0.012778 -0.371773 0.000000 0.000000 0.000000 1.000000 0.544228 0.208430 0 0 0 0
0.000000 -0.319211 0.000000 0.000000 0.000000 1.000000 0.500000 0.166590 0 0 0 89
-0.334441 0.010693 0.000000 0.000000 0.000000 1.000000 0.839542 0.487792 0 0 0 0
0.144934 0.119960 0.000000 0.000000 0.000000 1.000000 0.644455 0.487793 0 0 0 89
0.180330 0.479293 0.000000 0.000000 0.000000 1.000000 0.644455 1.000000 0 0 0 0
0.144934 0.588559 0.000000 0.000000 0.000000 1.000000 0.644455 1.000000 0 0 0 89
0.083571 -0.371773 0.000000 0.000000 0.000000 1.000000 0.544228 0.208430 0 0 0 0
0.405233 0.010693 0.000000 0.000000 0.000000 1.000000 0.839542 0.487792 0 0 0 0
0.471215 -0.372719 0.000000 -0.000000 0.000000 1.000000 1.000000 0.117466 13 100 5 255
0.369837 0.119960 0.000000 -0.000000 0.000000 1.000000 0.839542 0.487792 31 115 11 255
-0.471215 -0.372719 0.000000 -0.000000 0.000000 1.000000 1.000000 0.117466 13 100 5 255
-0.471215 -0.500665 0.000000 0.000000 -0.000000 1.000000 1.000000 0.000000 0 0 0 89
0.016865 -0.371773 0.000000 -0.000000 0.000000 1.000000 0.500000 0.166590 0 0 0 0
-0.369837 0.119960 0.000000 -0.000000 -0.000000 1.000000 0.839542 0.487792 0 0 0 89
0.179205 0.119960 0.000000 0.000000 0.000000 1.000000 0.644455 0.487793 0 0 0 0
0.369837 0.119960 0.000000 -0.000000 0.000000 1.000000 0.839542 0.487792 0 1 0 89
3 0 1 2
3 3 4 5
3 6 7 8
3 1 9 2
3 3 10 11
3 6 12 10
3 13 14 15
3 16 15 17
3 16 18 19
3 20 21 22
3 23 24 25
3 21 26 27
3 10 3 6
3 0 28 1
3 3 29 4
3 5 6 3
3 6 5 7
3 1 30 9
3 6 8 12
3 13 31 14
3 16 13 15
3 16 17 18
3 32 21 20
3 21 33 22
3 23 34 24
3 27 35 21
3 21 32 26
