ply
format ascii 1.0
comment Created by Blender 2.82 (sub 7) - www.blender.org, source file: ''
element vertex 91
property float x
property float y
property float z
property float nx
property float ny
property float nz
property float s
property float t
property uchar red
property uchar green
property uchar blue
property uchar alpha
element face 84
property list uchar uint vertex_indices
end_header
0.225939 -0.337274 0.000000 0.000000 0.000000 1.000000 0.828766 0.300051 255 255 255 255
-0.258374 -0.340414 0.000000 0.000000 0.000000 1.000000 0.206437 0.296999 255 255 255 255
-0.331976 -0.499456 0.000000 0.000000 0.000000 1.000000 0.030000 0.000000 179 179 179 255
-0.046046 -0.186466 0.000000 0.000000 0.000000 1.000000 0.443376 0.406683 255 255 255 255
0.121344 -0.177439 0.000000 0.000000 0.000000 1.000000 0.689277 0.428979 255 255 255 255
-0.126296 -0.177439 0.000000 0.000000 0.000000 1.000000 0.337843 0.428736 255 255 255 255
-0.353166 0.189709 0.000000 0.000000 0.000000 1.000000 0.005930 0.689915 235 235 235 255
-0.092444 0.204836 0.000000 0.000000 0.000000 1.000000 0.444460 0.689915 255 255 255 255
-0.039229 0.499456 0.000000 0.000000 0.000000 1.000000 0.444460 1.000000 235 235 235 255
-0.181904 -0.291747 0.000000 0.000000 -0.000000 1.000000 0.273027 0.314768 91 114 252 255
-0.258374 -0.340414 0.000000 0.000000 -0.000000 1.000000 0.206437 0.296999 91 114 252 255
0.225939 -0.337274 0.000000 0.000000 -0.000000 1.000000 0.828766 0.300051 91 114 252 255
0.091908 -0.249654 0.000000 0.000000 -0.000000 1.000000 0.655695 0.360916 255 255 255 255
-0.181904 -0.291747 0.000000 0.000000 -0.000000 1.000000 0.273027 0.314768 255 255 255 255
0.194933 -0.291747 0.000000 0.000000 -0.000000 1.000000 0.806540 0.315735 248 248 248 255
-0.046046 -0.208052 0.000000 0.000000 -0.000000 1.000000 0.445814 0.383303 91 114 252 255
-0.098451 -0.249654 0.000000 0.000000 -0.000000 1.000000 0.385372 0.359770 91 114 252 255
0.091908 -0.249654 0.000000 0.000000 -0.000000 1.000000 0.655695 0.360916 85 107 237 255
-0.126296 -0.177439 0.000000 0.000000 0.000000 1.000000 0.337843 0.428736 91 114 252 255
-0.057820 -0.130637 0.000000 0.000000 0.000000 1.000000 0.404589 0.457602 86 103 211 255
-0.057504 -0.109334 0.000000 0.000000 0.000000 1.000000 0.403136 0.480292 89 111 247 255
0.178972 -0.096050 0.000000 -0.000000 0.000000 1.000000 0.755212 0.503907 255 255 255 255
0.304818 -0.044824 0.000000 -0.000000 0.000000 1.000000 0.866278 0.515323 255 255 255 255
0.155685 -0.095020 0.000000 -0.000000 0.000000 1.000000 0.729649 0.516311 255 255 255 255
0.029113 0.228378 0.000000 -0.000000 0.000000 1.000000 0.542922 0.781569 255 255 255 255
0.353166 0.499456 0.000000 -0.000000 0.000000 1.000000 1.000000 1.000000 255 255 255 255
-0.039229 0.499456 0.000000 -0.000000 0.000000 1.000000 0.444460 1.000000 255 255 255 255
-0.090076 -0.047347 0.000000 0.000000 -0.000000 1.000000 0.364453 0.552338 91 114 252 255
-0.154673 -0.095020 0.000000 0.000000 -0.000000 1.000000 0.287910 0.517426 91 114 252 255
0.155685 -0.095020 0.000000 0.000000 -0.000000 1.000000 0.729649 0.516311 91 114 252 255
0.004965 -0.060308 0.000000 -0.000000 0.000000 1.000000 0.520542 0.553495 255 255 255 255
-0.023871 -0.024767 0.000000 -0.000000 0.000000 1.000000 0.472455 0.574460 255 255 255 255
-0.090076 -0.047347 0.000000 -0.000000 0.000000 1.000000 0.364453 0.552338 255 255 255 255
-0.034664 0.053728 0.000000 0.000000 0.000000 1.000000 0.455149 0.631760 235 66 70 255
0.062473 0.143996 0.000000 0.000000 0.000000 1.000000 0.592009 0.712509 235 66 70 255
0.016848 0.163130 0.000000 0.000000 0.000000 1.000000 0.558125 0.715200 235 66 70 255
-0.044384 0.166821 0.000000 -0.000000 0.000000 1.000000 0.446426 0.689173 255 255 255 255
-0.092444 0.204836 0.000000 -0.000000 0.000000 1.000000 0.444460 0.689915 161 161 161 255
-0.353166 0.189709 0.000000 -0.000000 0.000000 1.000000 0.000000 0.685722 161 161 161 255
0.188137 -0.201126 0.000000 -0.000000 0.000000 1.000000 0.772020 0.409597 255 255 255 255
0.210076 -0.102853 0.000000 -0.000000 0.000000 1.000000 0.813178 0.488872 91 114 252 255
0.304818 -0.044824 0.000000 -0.000000 0.000000 1.000000 0.866278 0.515323 91 114 252 255
0.178972 -0.096050 0.000000 -0.000000 0.000000 1.000000 0.755212 0.503907 91 114 252 255
0.035000 -0.026729 0.000000 0.000000 0.000000 1.000000 0.556353 0.572124 235 66 70 255
0.077747 -0.033205 0.000000 0.000000 0.000000 1.000000 0.604069 0.564612 235 66 70 255
0.081770 0.034431 0.000000 0.000000 0.000000 1.000000 0.605373 0.622836 235 66 70 255
-0.039229 0.499456 0.000000 -0.000000 0.000000 1.000000 0.444460 1.000000 161 161 161 255
0.188137 -0.201126 0.000000 0.000000 0.000000 1.000000 0.772020 0.409597 91 114 252 255
0.353166 -0.499456 0.000000 0.000000 -0.000000 1.000000 1.000000 0.000000 0 0 0 80
-0.320104 -0.601186 0.000000 0.000000 -0.000000 1.000000 0.046807 0.000000 0 0 0 0
0.399085 -0.601186 0.000000 0.000000 -0.000000 1.000000 1.000000 0.000000 0 0 0 0
0.399674 0.400199 0.000000 0.000000 0.000000 1.000000 0.000000 0.000000 0 0 0 0
0.353166 0.499456 0.000000 0.000000 0.000000 1.000000 1.000000 1.000000 0 0 0 80
0.353166 -0.499456 0.000000 -0.000000 0.000000 1.000000 1.000000 0.000000 179 179 179 255
0.242030 -0.257406 0.000000 -0.000000 0.000000 1.000000 0.855159 0.334454 255 255 255 255
-0.353166 -0.279962 0.000000 -0.000000 -0.000000 1.000000 0.000000 0.218398 255 255 255 255
-0.177917 -0.255443 0.000000 0.000000 -0.000000 1.000000 0.278672 0.350986 255 255 255 255
-0.098451 -0.249654 0.000000 0.000000 -0.000000 1.000000 0.385372 0.359770 255 255 255 255
-0.046046 -0.208052 0.000000 0.000000 -0.000000 1.000000 0.445814 0.383303 255 255 255 255
-0.177917 -0.255443 0.000000 -0.000000 0.000000 1.000000 0.278672 0.350986 91 114 252 255
0.242030 -0.257406 0.000000 -0.000000 0.000000 1.000000 0.855159 0.334454 85 107 238 255
0.194933 -0.291747 0.000000 -0.000000 0.000000 1.000000 0.806540 0.315735 91 114 252 255
-0.046046 -0.186466 0.000000 -0.000000 0.000000 1.000000 0.443376 0.406683 89 112 250 255
0.121344 -0.177439 0.000000 0.000000 0.000000 1.000000 0.689277 0.428979 85 107 237 255
-0.057504 -0.109334 0.000000 0.000000 -0.000000 1.000000 0.403136 0.480292 255 255 255 255
-0.057820 -0.130637 0.000000 0.000000 -0.000000 1.000000 0.404589 0.457602 255 255 255 255
-0.154673 -0.095020 0.000000 0.000000 0.000000 1.000000 0.287910 0.517426 248 248 248 255
-0.353166 0.189709 0.000000 -0.000000 0.000000 1.000000 0.000000 0.685722 255 255 255 255
-0.090135 0.065321 0.000000 0.000000 0.000000 1.000000 0.403297 0.630531 255 255 255 255
0.016848 0.163130 0.000000 0.000000 0.000000 1.000000 0.558125 0.715200 255 255 255 255
0.062473 0.143996 0.000000 0.000000 0.000000 1.000000 0.592009 0.712509 255 255 255 255
0.083057 0.091736 0.000000 0.000000 0.000000 1.000000 0.622403 0.669184 255 255 255 255
0.164189 0.150211 0.000000 0.000000 0.000000 1.000000 0.720695 0.724935 255 255 255 255
0.104084 0.065777 0.000000 0.000000 -0.000000 1.000000 0.636549 0.649019 255 255 255 255
-0.090076 -0.027152 0.000000 -0.000000 0.000000 1.000000 0.363251 0.573291 92 114 251 255
0.081770 0.034431 0.000000 -0.000000 0.000000 1.000000 0.605373 0.622836 255 255 255 255
0.077747 -0.033205 0.000000 -0.000000 0.000000 1.000000 0.604069 0.564612 255 255 255 255
-0.090076 -0.027152 0.000000 0.000000 -0.000000 1.000000 0.363251 0.573291 255 255 255 255
-0.034664 0.053728 0.000000 0.000000 -0.000000 1.000000 0.455149 0.631760 255 255 255 255
0.024207 0.040972 0.000000 0.000000 -0.000000 1.000000 0.539502 0.625795 255 255 255 255
0.035000 -0.026729 0.000000 0.000000 0.000000 1.000000 0.556353 0.572124 255 255 255 255
-0.090135 0.065321 0.000000 0.000000 0.000000 1.000000 0.403297 0.630531 235 66 70 255
-0.023871 -0.024767 0.000000 0.000000 0.000000 1.000000 0.472455 0.574460 235 66 70 255
0.029113 0.228378 0.000000 -0.000000 0.000000 1.000000 0.542922 0.781569 235 97 36 255
0.210076 -0.102853 0.000000 0.000000 0.000000 1.000000 0.813178 0.488872 255 255 255 255
0.104084 0.065777 0.000000 -0.000000 0.000000 1.000000 0.636549 0.649019 235 66 70 255
0.164189 0.150211 0.000000 -0.000000 0.000000 1.000000 0.720695 0.724935 235 66 70 255
0.083057 0.091736 0.000000 -0.000000 0.000000 1.000000 0.622403 0.669184 235 66 70 255
0.024207 0.040972 0.000000 0.000000 -0.000000 1.000000 0.539502 0.625795 235 66 70 255
0.004965 -0.060308 0.000000 0.000000 -0.000000 1.000000 0.520542 0.553495 235 66 70 255
-0.331976 -0.499456 0.000000 0.000000 -0.000000 1.000000 0.030000 0.000000 0 0 0 80
3 0 1 2
3 3 4 5
3 6 7 8
3 9 10 11
3 12 13 14
3 15 16 17
3 18 19 20
3 21 22 23
3 24 25 26
3 27 28 29
3 30 31 32
3 33 34 35
3 36 37 38
3 39 21 4
3 40 41 42
3 43 44 45
3 36 46 37
3 41 40 47
3 48 49 50
3 48 51 52
3 53 54 0
3 1 55 2
3 53 0 2
3 5 55 56
3 55 1 56
3 56 13 57
3 12 14 4
3 3 58 12
3 56 57 5
3 57 3 5
3 3 12 4
3 9 59 10
3 11 60 61
3 61 9 11
3 12 57 13
3 15 62 16
3 18 63 19
3 64 65 4
3 64 4 23
3 4 21 23
3 55 5 66
3 5 64 66
3 66 67 55
3 22 53 25
3 23 66 64
3 22 25 23
3 67 66 68
3 68 69 36
3 69 24 36
3 70 71 72
3 24 70 72
3 72 73 23
3 36 67 68
3 72 23 25
3 26 36 24
3 24 72 25
3 27 74 28
3 23 73 75
3 23 75 76
3 68 66 77
3 70 78 79
3 78 31 79
3 31 68 77
3 23 76 30
3 30 80 31
3 80 79 31
3 79 71 70
3 31 77 32
3 32 23 30
3 81 82 33
3 34 83 35
3 35 81 33
3 54 53 22
3 39 84 21
3 54 22 39
3 4 14 39
3 14 54 39
3 85 86 87
3 87 88 45
3 88 43 45
3 43 89 44
3 45 85 87
3 48 90 49
3 48 50 51
