ply
format ascii 1.0
comment Created by Blender 2.82 (sub 7) - www.blender.org, source file: 'mc_icon.blend'
element vertex 222
property float x
property float y
property float z
property float nx
property float ny
property float nz
property float s
property float t
property uchar red
property uchar green
property uchar blue
property uchar alpha
element face 134
property list uchar uint vertex_indices
end_header
0.126269 0.378437 0.000000 0.000000 -0.000000 1.000000 0.750000 0.562500 166 205 148 255
0.126269 0.283835 0.000000 0.000000 -0.000000 1.000000 0.687500 0.625000 166 205 148 255
0.252537 0.331136 0.000000 0.000000 -0.000000 1.000000 0.687500 0.562500 166 205 148 255
-0.000000 0.425738 0.000000 0.000000 0.000000 1.000000 0.812500 0.562500 154 200 132 255
-0.000000 0.331136 0.000000 0.000000 0.000000 1.000000 0.750000 0.625000 154 200 132 255
0.126269 0.378437 0.000000 0.000000 0.000000 1.000000 0.750000 0.562500 154 200 132 255
0.000000 0.236534 0.000000 0.000000 0.000000 1.000000 0.687500 0.687500 154 200 132 255
0.126269 0.283835 0.000000 0.000000 0.000000 1.000000 0.687500 0.625000 154 200 132 255
-0.126269 0.378437 0.000000 0.000000 -0.000000 1.000000 0.812500 0.625000 166 205 148 255
-0.126269 0.283835 0.000000 0.000000 -0.000000 1.000000 0.750000 0.687500 166 205 148 255
-0.000000 0.331136 0.000000 0.000000 -0.000000 1.000000 0.750000 0.625000 166 205 148 255
0.479558 0.340695 0.000000 0.000000 -0.000000 1.000000 0.637630 0.500000 191 219 181 255
0.378806 0.283835 0.000000 0.000000 -0.000000 1.000000 0.625000 0.562500 191 219 181 255
0.505075 0.331136 0.000000 0.000000 -0.000000 1.000000 0.625000 0.500000 191 219 181 255
0.252538 0.425739 0.000000 0.000000 -0.000000 1.000000 0.750000 0.500000 154 200 132 255
0.252537 0.331136 0.000000 0.000000 -0.000000 1.000000 0.687500 0.562500 154 200 132 255
0.378806 0.378437 0.000000 0.000000 -0.000000 1.000000 0.687500 0.500000 154 200 132 255
0.126269 0.473040 0.000000 0.000000 -0.000000 1.000000 0.812500 0.500000 130 192 104 255
0.126269 0.378437 0.000000 0.000000 -0.000000 1.000000 0.750000 0.562500 130 192 104 255
0.252538 0.425739 0.000000 0.000000 -0.000000 1.000000 0.750000 0.500000 130 192 104 255
0.000000 0.520341 0.000000 0.000000 -0.000000 1.000000 0.875000 0.500000 154 200 132 255
0.126269 0.473040 0.000000 0.000000 -0.000000 1.000000 0.812500 0.500000 154 200 132 255
-0.126269 0.473040 0.000000 0.000000 -0.000000 1.000000 0.875000 0.562500 166 205 148 255
-0.000000 0.425738 0.000000 0.000000 -0.000000 1.000000 0.812500 0.562500 166 205 148 255
-0.252538 0.425739 0.000000 0.000000 -0.000000 1.000000 0.875000 0.625000 154 200 132 255
-0.252538 0.331136 0.000000 0.000000 -0.000000 1.000000 0.812500 0.687500 154 200 132 255
-0.126269 0.378437 0.000000 0.000000 -0.000000 1.000000 0.812500 0.625000 154 200 132 255
-0.378806 0.378437 0.000000 0.000000 -0.000000 1.000000 0.875000 0.687500 130 192 104 255
-0.378806 0.283835 0.000000 0.000000 -0.000000 1.000000 0.812500 0.750000 130 192 104 255
-0.252538 0.331136 0.000000 0.000000 -0.000000 1.000000 0.812500 0.687500 130 192 104 255
-0.252538 0.236534 0.000000 0.000000 -0.000000 1.000000 0.750000 0.750000 130 192 104 255
-0.126269 0.283835 0.000000 0.000000 -0.000000 1.000000 0.750000 0.687500 130 192 104 255
-0.126269 0.283835 0.000000 0.000000 -0.000000 1.000000 0.750000 0.687500 154 200 132 255
-0.126269 0.189233 0.000000 0.000000 -0.000000 1.000000 0.687500 0.750000 154 200 132 255
0.126269 0.189233 0.000000 -0.000000 0.000000 1.000000 0.625000 0.687500 183 215 170 255
0.119890 0.191623 0.000000 -0.000000 0.000000 1.000000 0.628158 0.687500 183 215 170 255
0.000000 0.141932 0.000000 -0.000000 0.000000 1.000000 0.625000 0.750000 183 215 170 255
0.239779 0.241313 0.000000 0.000000 -0.000000 1.000000 0.631315 0.625000 183 215 170 255
0.252538 0.236534 0.000000 0.000000 -0.000000 1.000000 0.625000 0.625000 183 215 170 255
0.359669 0.291004 0.000000 0.000000 -0.000000 1.000000 0.634473 0.562500 166 210 150 255
0.252538 0.236534 0.000000 0.000000 -0.000000 1.000000 0.625000 0.625000 166 210 150 255
0.378806 0.283835 0.000000 0.000000 -0.000000 1.000000 0.625000 0.562500 166 210 150 255
-0.126269 -0.141903 0.000000 0.000000 -0.000000 1.000000 0.500000 0.812500 151 153 157 255
-0.252538 -0.260170 0.000000 0.000000 -0.000000 1.000000 0.437500 0.875000 151 153 157 255
-0.126269 -0.307471 0.000000 0.000000 -0.000000 1.000000 0.437500 0.812500 151 153 157 255
-0.126269 0.023665 0.000000 0.000000 -0.000000 1.000000 0.562500 0.812500 112 75 51 255
-0.252538 -0.094602 0.000000 0.000000 -0.000000 1.000000 0.500000 0.875000 112 75 51 255
-0.126269 -0.141903 0.000000 0.000000 -0.000000 1.000000 0.500000 0.812500 112 75 53 255
-0.252538 -0.094602 0.000000 0.000000 -0.000000 1.000000 0.500000 0.875000 167 133 104 255
-0.378806 -0.212869 0.000000 0.000000 -0.000000 1.000000 0.437500 0.937500 167 133 104 255
-0.252538 -0.260170 0.000000 0.000000 -0.000000 1.000000 0.437500 0.875000 167 133 104 255
-0.252538 0.070966 0.000000 0.000000 -0.000000 1.000000 0.562500 0.875000 168 134 105 255
-0.378806 -0.047301 0.000000 0.000000 -0.000000 1.000000 0.500000 0.937500 167 133 104 255
0.000000 -0.354773 0.000000 0.000000 -0.000000 1.000000 0.437500 0.750000 169 135 107 255
-0.126269 -0.473040 0.000000 0.000000 -0.000000 1.000000 0.375000 0.812500 167 133 104 255
0.000000 -0.520341 0.000000 0.000000 -0.000000 1.000000 0.375000 0.750000 167 133 104 255
0.000000 -0.189204 0.000000 0.000000 -0.000000 1.000000 0.500000 0.750000 152 116 88 255
-0.126269 -0.307471 0.000000 0.000000 -0.000000 1.000000 0.437500 0.812500 152 116 88 255
0.000000 -0.354773 0.000000 0.000000 -0.000000 1.000000 0.437500 0.750000 152 116 88 255
0.000000 -0.023636 0.000000 0.000000 -0.000000 1.000000 0.562500 0.750000 152 116 88 255
-0.126269 -0.141903 0.000000 0.000000 -0.000000 1.000000 0.500000 0.812500 152 116 88 255
0.000000 0.141932 0.000000 0.000000 -0.000000 1.000000 0.625000 0.750000 62 141 47 255
-0.126269 0.023665 0.000000 0.000000 -0.000000 1.000000 0.562500 0.812500 64 145 49 255
0.000000 -0.023636 0.000000 0.000000 -0.000000 1.000000 0.562500 0.750000 63 143 48 255
-0.126269 0.183917 0.000000 0.000000 -0.000000 1.000000 0.622993 0.812500 111 169 107 255
-0.252538 0.070966 0.000000 0.000000 -0.000000 1.000000 0.562500 0.875000 111 169 107 255
-0.126269 0.023665 0.000000 0.000000 -0.000000 1.000000 0.562500 0.812500 111 169 107 255
-0.252538 0.225901 0.000000 0.000000 -0.000000 1.000000 0.620986 0.875000 64 145 49 255
-0.378806 0.118267 0.000000 0.000000 -0.000000 1.000000 0.562500 0.937500 64 145 49 255
-0.252538 0.070966 0.000000 0.000000 -0.000000 1.000000 0.562500 0.875000 64 145 49 255
-0.378806 0.267886 0.000000 0.000000 -0.000000 1.000000 0.618980 0.937500 93 166 67 255
-0.505075 0.165568 0.000000 0.000000 -0.000000 1.000000 0.562500 1.000000 93 166 66 255
-0.378806 0.118267 0.000000 0.000000 -0.000000 1.000000 0.562500 0.937500 97 166 77 255
-0.378806 0.118267 0.000000 0.000000 -0.000000 1.000000 0.562500 0.937500 112 75 51 255
-0.505075 0.000000 0.000000 0.000000 -0.000000 1.000000 0.500000 1.000000 112 75 51 255
-0.378806 -0.047301 0.000000 0.000000 -0.000000 1.000000 0.500000 0.937500 112 75 51 255
-0.378806 -0.047301 0.000000 0.000000 -0.000000 1.000000 0.500000 0.937500 111 77 52 255
-0.505075 -0.165568 0.000000 0.000000 -0.000000 1.000000 0.437500 1.000000 111 77 52 255
-0.378806 -0.212869 0.000000 0.000000 -0.000000 1.000000 0.437500 0.937500 111 77 52 255
-0.378806 -0.212869 0.000000 0.000000 -0.000000 1.000000 0.437500 0.937500 153 118 88 255
-0.505075 -0.331136 0.000000 0.000000 -0.000000 1.000000 0.375000 1.000000 153 118 88 255
-0.378806 -0.378437 0.000000 0.000000 -0.000000 1.000000 0.375000 0.937500 153 118 88 255
-0.252538 -0.260170 0.000000 0.000000 -0.000000 1.000000 0.437500 0.875000 133 99 73 255
-0.378806 -0.378437 0.000000 0.000000 -0.000000 1.000000 0.375000 0.937500 133 98 72 255
-0.252538 -0.425739 0.000000 0.000000 -0.000000 1.000000 0.375000 0.875000 133 98 72 255
-0.126269 -0.307471 0.000000 0.000000 -0.000000 1.000000 0.437500 0.812500 104 72 49 255
-0.252538 -0.425739 0.000000 0.000000 -0.000000 1.000000 0.375000 0.875000 111 77 52 255
-0.126269 -0.473040 0.000000 0.000000 -0.000000 1.000000 0.375000 0.812500 111 77 52 255
0.378806 -0.212869 0.000000 -0.000000 0.000000 1.000000 0.437500 0.562500 52 54 55 255
0.252538 -0.094602 0.000000 -0.000000 0.000000 1.000000 0.500000 0.625000 52 54 55 255
0.252538 -0.260170 0.000000 -0.000000 0.000000 1.000000 0.437500 0.625000 52 54 55 255
0.378806 -0.047301 0.000000 -0.000000 0.000000 1.000000 0.500000 0.562500 40 20 12 255
0.252538 0.070966 0.000000 -0.000000 0.000000 1.000000 0.562500 0.625000 40 20 12 255
0.252538 -0.094602 0.000000 -0.000000 0.000000 1.000000 0.500000 0.625000 41 21 13 255
0.252538 -0.260170 0.000000 -0.000000 0.000000 1.000000 0.437500 0.625000 67 38 28 255
0.126269 -0.141903 0.000000 -0.000000 0.000000 1.000000 0.500000 0.687500 67 38 28 255
0.126269 -0.307471 0.000000 -0.000000 0.000000 1.000000 0.437500 0.687500 67 38 28 255
0.252538 -0.094602 0.000000 -0.000000 -0.000000 1.000000 0.500000 0.625000 67 38 28 255
0.126269 0.023665 0.000000 -0.000000 -0.000000 1.000000 0.562500 0.687500 71 46 38 255
0.505075 -0.331136 0.000000 -0.000000 -0.000000 1.000000 0.375000 0.500000 39 19 12 255
0.378806 -0.212869 0.000000 -0.000000 -0.000000 1.000000 0.437500 0.562500 39 19 12 255
0.378806 -0.378437 0.000000 -0.000000 -0.000000 1.000000 0.375000 0.562500 39 19 12 255
0.505075 -0.165568 0.000000 -0.000000 0.000000 1.000000 0.437500 0.500000 39 19 12 255
0.378806 -0.047301 0.000000 -0.000000 0.000000 1.000000 0.500000 0.562500 39 19 12 255
0.505075 0.000000 0.000000 -0.000000 -0.000000 1.000000 0.500000 0.500000 39 19 12 255
0.378806 0.118267 0.000000 -0.000000 -0.000000 1.000000 0.562500 0.562500 39 19 12 255
0.505075 0.165568 0.000000 -0.000000 0.000000 1.000000 0.562500 0.500000 13 85 3 255
0.378806 0.283835 0.000000 -0.000000 0.000000 1.000000 0.625000 0.562500 13 85 3 255
0.378806 0.118267 0.000000 -0.000000 0.000000 1.000000 0.562500 0.562500 13 85 3 255
0.378806 0.118267 0.000000 -0.000000 0.000000 1.000000 0.562500 0.562500 19 94 15 255
0.252538 0.236534 0.000000 -0.000000 0.000000 1.000000 0.625000 0.625000 19 94 15 255
0.252538 0.070966 0.000000 -0.000000 0.000000 1.000000 0.562500 0.625000 19 94 15 255
0.252538 0.070966 0.000000 -0.000000 0.000000 1.000000 0.562500 0.625000 13 85 3 255
0.126269 0.189233 0.000000 -0.000000 0.000000 1.000000 0.625000 0.687500 15 86 7 255
0.126269 0.023665 0.000000 -0.000000 0.000000 1.000000 0.562500 0.687500 13 85 3 255
0.126269 0.023665 0.000000 -0.000000 0.000000 1.000000 0.562500 0.687500 21 102 16 255
0.000000 0.141932 0.000000 -0.000000 0.000000 1.000000 0.625000 0.750000 53 120 51 255
0.000000 -0.023636 0.000000 -0.000000 0.000000 1.000000 0.562500 0.750000 29 107 25 255
0.126269 -0.141903 0.000000 -0.000000 0.000000 1.000000 0.500000 0.687500 40 20 12 255
0.000000 -0.023636 0.000000 -0.000000 0.000000 1.000000 0.562500 0.750000 40 20 12 255
0.000000 -0.189204 0.000000 -0.000000 0.000000 1.000000 0.500000 0.750000 40 20 12 255
0.126269 -0.307471 0.000000 -0.000000 0.000000 1.000000 0.437500 0.687500 56 28 15 255
0.000000 -0.189204 0.000000 -0.000000 0.000000 1.000000 0.500000 0.750000 56 28 15 255
0.000000 -0.354773 0.000000 -0.000000 0.000000 1.000000 0.437500 0.750000 56 28 15 255
0.126269 -0.473040 0.000000 -0.000000 0.000000 1.000000 0.375000 0.687500 51 25 15 255
0.000000 -0.354773 0.000000 -0.000000 0.000000 1.000000 0.437500 0.750000 51 25 15 255
0.000000 -0.520341 0.000000 -0.000000 0.000000 1.000000 0.375000 0.750000 51 25 15 255
0.252538 -0.425739 0.000000 -0.000000 -0.000000 1.000000 0.375000 0.625000 52 25 16 255
0.126269 -0.307471 0.000000 -0.000000 -0.000000 1.000000 0.437500 0.687500 52 25 16 255
0.126269 -0.473040 0.000000 -0.000000 -0.000000 1.000000 0.375000 0.687500 52 25 16 255
0.378806 -0.378437 0.000000 -0.000000 0.000000 1.000000 0.375000 0.562500 67 38 28 255
0.252538 -0.425739 0.000000 -0.000000 0.000000 1.000000 0.375000 0.625000 67 38 28 255
-0.505075 0.309871 0.000000 0.000000 0.000000 1.000000 0.616973 1.000000 142 192 126 255
-0.378806 0.283835 0.000000 0.000000 0.000000 1.000000 0.625000 0.937500 140 192 124 255
-0.505075 0.331136 0.000000 0.000000 0.000000 1.000000 0.625000 1.000000 142 192 126 255
-0.126269 0.183917 0.000000 0.000000 0.000000 1.000000 0.622993 0.812500 120 177 112 255
0.000000 0.141932 0.000000 0.000000 0.000000 1.000000 0.625000 0.750000 119 174 111 255
-0.126269 0.189233 0.000000 0.000000 0.000000 1.000000 0.625000 0.812500 120 177 112 255
0.000000 0.141932 0.000000 -0.000000 0.000000 1.000000 0.625000 0.750000 154 200 132 255
-0.252538 0.225901 0.000000 0.000000 0.000000 1.000000 0.620986 0.875000 153 194 152 255
-0.126269 0.189233 0.000000 0.000000 0.000000 1.000000 0.625000 0.812500 153 194 152 255
-0.252538 0.236534 0.000000 0.000000 0.000000 1.000000 0.625000 0.875000 153 194 152 255
0.119890 0.191623 0.000000 -0.000000 0.000000 1.000000 0.628158 0.687500 154 200 132 255
0.359669 0.291004 0.000000 -0.000000 0.000000 1.000000 0.634473 0.562500 166 205 148 255
0.378806 0.378437 0.000000 -0.000000 0.000000 1.000000 0.687500 0.500000 166 205 148 255
-0.378806 0.267886 0.000000 0.000000 0.000000 1.000000 0.618980 0.937500 120 177 112 255
-0.252538 0.236534 0.000000 0.000000 0.000000 1.000000 0.625000 0.875000 120 177 112 255
-0.378806 0.283835 0.000000 0.000000 0.000000 1.000000 0.625000 0.937500 120 177 112 255
0.239779 0.241313 0.000000 -0.000000 0.000000 1.000000 0.631315 0.625000 130 192 104 255
0.252537 0.331136 0.000000 -0.000000 0.000000 1.000000 0.687500 0.562500 130 192 104 255
0.126269 0.283835 0.000000 -0.000000 0.000000 1.000000 0.687500 0.625000 130 192 104 255
0.126269 -0.473040 0.000000 0.000000 -0.000000 1.000000 0.375000 0.687500 0 0 0 82
0.047463 -0.631790 0.000000 0.000000 -0.000000 1.000000 0.375000 0.750000 0 0 0 0
0.173732 -0.584489 0.000000 0.000000 -0.000000 1.000000 0.375000 0.687500 10 5 2 0
-0.126269 -0.473040 0.000000 0.000000 -0.000000 1.000000 0.375000 0.812500 0 0 0 82
-0.205075 -0.537188 0.000000 0.000000 -0.000000 1.000000 0.375000 0.875000 0 0 0 0
-0.078806 -0.584489 0.000000 0.000000 -0.000000 1.000000 0.375000 0.812500 0 0 0 0
0.505075 -0.165568 0.000000 0.000000 0.000000 1.000000 0.437500 0.500000 0 0 0 82
0.552538 -0.111450 0.000000 0.000000 0.000000 1.000000 0.500000 0.500000 0 0 0 0
0.505075 0.000000 0.000000 0.000000 0.000000 1.000000 0.500000 0.500000 0 0 0 78
0.252538 -0.425739 0.000000 0.000000 -0.000000 1.000000 0.375000 0.625000 0 0 0 82
0.173732 -0.584489 0.000000 0.000000 -0.000000 1.000000 0.375000 0.687500 10 5 3 0
0.300000 -0.537188 0.000000 0.000000 -0.000000 1.000000 0.375000 0.625000 0 0 0 0
0.000000 -0.520341 0.000000 0.000000 -0.000000 1.000000 0.375000 0.750000 0 0 0 82
-0.378806 -0.378437 0.000000 0.000000 -0.000000 1.000000 0.375000 0.937500 0 0 0 82
-0.457612 -0.442586 0.000000 0.000000 -0.000000 1.000000 0.375000 1.000000 1 0 0 0
-0.331344 -0.489887 0.000000 0.000000 -0.000000 1.000000 0.375000 0.937500 0 0 0 0
0.505075 -0.331136 0.000000 0.000000 0.000000 1.000000 0.375000 0.500000 0 0 0 82
0.552538 -0.277018 0.000000 0.000000 0.000000 1.000000 0.437500 0.500000 0 0 0 0
0.378806 -0.378437 0.000000 0.000000 -0.000000 1.000000 0.375000 0.562500 0 0 0 82
0.426269 -0.489887 0.000000 0.000000 -0.000000 1.000000 0.375000 0.562500 0 0 0 0
0.505075 0.165568 0.000000 0.000000 0.000000 1.000000 0.562500 0.500000 0 0 0 82
0.552538 0.219687 0.000000 0.000000 0.000000 1.000000 0.625000 0.500000 0 0 0 0
0.505075 0.331136 0.000000 0.000000 0.000000 1.000000 0.625000 0.500000 0 0 0 27
-0.252538 -0.425739 0.000000 0.000000 -0.000000 1.000000 0.375000 0.875000 0 0 0 82
0.552538 -0.442586 0.000000 0.000000 -0.000000 1.000000 0.375000 0.500000 0 0 0 0
0.552538 0.054119 0.000000 0.000000 0.000000 1.000000 0.562500 0.500000 0 0 0 0
-0.252538 0.331136 0.000000 0.000000 -0.000000 1.000000 0.812500 0.687500 166 205 148 255
0.359669 0.291004 0.000000 0.000000 -0.000000 1.000000 0.634473 0.562500 191 219 181 255
-0.000000 0.425738 0.000000 0.000000 -0.000000 1.000000 0.812500 0.562500 130 192 104 255
-0.126269 0.473040 0.000000 0.000000 -0.000000 1.000000 0.875000 0.562500 154 200 132 255
-0.252538 0.425739 0.000000 0.000000 -0.000000 1.000000 0.875000 0.625000 166 205 148 255
-0.378806 0.378437 0.000000 0.000000 -0.000000 1.000000 0.875000 0.687500 154 200 132 255
-0.505075 0.331136 0.000000 0.000000 -0.000000 1.000000 0.875000 0.750000 130 192 104 255
-0.252538 0.236534 0.000000 0.000000 -0.000000 1.000000 0.750000 0.750000 154 200 132 255
0.239779 0.241313 0.000000 0.000000 -0.000000 1.000000 0.631315 0.625000 166 210 150 255
-0.252538 -0.094602 0.000000 -0.000000 0.000000 1.000000 0.500000 0.875000 151 153 157 255
-0.252538 0.070966 0.000000 -0.000000 0.000000 1.000000 0.562500 0.875000 112 75 51 255
-0.378806 0.118267 0.000000 -0.000000 0.000000 1.000000 0.562500 0.937500 167 133 104 255
-0.126269 -0.307471 0.000000 -0.000000 0.000000 1.000000 0.437500 0.812500 167 133 104 255
-0.126269 0.023665 0.000000 -0.000000 0.000000 1.000000 0.562500 0.812500 152 116 88 255
-0.126269 0.183917 0.000000 -0.000000 -0.000000 1.000000 0.622993 0.812500 64 145 49 255
-0.252538 0.225901 0.000000 -0.000000 0.000000 1.000000 0.620986 0.875000 111 169 107 255
-0.378806 0.267886 0.000000 -0.000000 -0.000000 1.000000 0.618980 0.937500 64 145 49 255
-0.505075 0.309871 0.000000 -0.000000 0.000000 1.000000 0.616973 1.000000 96 167 69 255
-0.505075 0.165568 0.000000 -0.000000 0.000000 1.000000 0.562500 1.000000 112 75 51 255
-0.505075 0.000000 0.000000 -0.000000 0.000000 1.000000 0.500000 1.000000 111 77 52 255
-0.505075 -0.165568 0.000000 -0.000000 0.000000 1.000000 0.437500 1.000000 153 118 88 255
-0.378806 -0.212869 0.000000 -0.000000 0.000000 1.000000 0.437500 0.937500 133 98 72 255
-0.252538 -0.260170 0.000000 -0.000000 0.000000 1.000000 0.437500 0.875000 113 81 58 255
0.378806 -0.047301 0.000000 -0.000000 0.000000 1.000000 0.500000 0.562500 52 54 55 255
0.378806 0.118267 0.000000 -0.000000 0.000000 1.000000 0.562500 0.562500 46 30 24 255
0.252538 0.070966 0.000000 -0.000000 0.000000 1.000000 0.562500 0.625000 67 38 28 255
0.505075 0.165568 0.000000 -0.000000 0.000000 1.000000 0.562500 0.500000 39 19 12 255
0.505075 0.331136 0.000000 -0.000000 0.000000 1.000000 0.625000 0.500000 13 85 3 255
0.378806 0.283835 0.000000 -0.000000 0.000000 1.000000 0.625000 0.562500 19 94 15 255
0.252538 0.236534 0.000000 -0.000000 0.000000 1.000000 0.625000 0.625000 13 85 3 255
0.126269 0.189233 0.000000 -0.000000 0.000000 1.000000 0.625000 0.687500 21 99 16 255
0.126269 0.023665 0.000000 -0.000000 0.000000 1.000000 0.562500 0.687500 40 20 12 255
0.126269 -0.141903 0.000000 -0.000000 0.000000 1.000000 0.500000 0.687500 56 28 15 255
0.126269 -0.307471 0.000000 -0.000000 0.000000 1.000000 0.437500 0.687500 51 25 15 255
0.252538 -0.260170 0.000000 -0.000000 0.000000 1.000000 0.437500 0.625000 52 25 16 255
0.378806 -0.212869 0.000000 -0.000000 0.000000 1.000000 0.437500 0.562500 67 38 28 255
-0.378806 0.267886 0.000000 0.000000 0.000000 1.000000 0.618980 0.937500 140 192 125 255
-0.126269 0.183917 0.000000 0.000000 0.000000 1.000000 0.622993 0.812500 153 194 152 255
0.239779 0.241313 0.000000 0.000000 0.000000 1.000000 0.631315 0.625000 154 200 132 255
0.479558 0.340695 0.000000 0.000000 0.000000 1.000000 0.637630 0.500000 166 205 148 255
-0.252538 0.225901 0.000000 0.000000 0.000000 1.000000 0.620986 0.875000 120 177 112 255
0.359669 0.291004 0.000000 0.000000 0.000000 1.000000 0.634473 0.562500 130 192 104 255
-0.126269 -0.473040 0.000000 -0.000000 -0.000000 1.000000 0.375000 0.812500 2 1 0 82
-0.505075 -0.331136 0.000000 -0.000000 -0.000000 1.000000 0.375000 1.000000 17 13 9 82
0.252538 -0.425739 0.000000 0.000000 -0.000000 1.000000 0.375000 0.625000 1 0 0 82
3 0 1 2
3 3 4 5
3 4 6 7
3 8 9 10
3 11 12 13
3 14 15 16
3 17 18 19
3 20 3 21
3 22 8 23
3 24 25 26
3 27 28 29
3 29 30 31
3 32 33 6
3 34 35 36
3 37 34 38
3 39 40 41
3 42 43 44
3 45 46 47
3 48 49 50
3 51 52 48
3 53 54 55
3 56 57 58
3 59 60 56
3 61 62 63
3 64 65 66
3 67 68 69
3 70 71 72
3 73 74 75
3 76 77 78
3 79 80 81
3 82 83 84
3 85 86 87
3 88 89 90
3 91 92 93
3 94 95 96
3 97 98 95
3 99 100 101
3 102 103 100
3 104 105 103
3 106 107 108
3 109 110 111
3 112 113 114
3 115 116 117
3 118 119 120
3 121 122 123
3 124 125 126
3 127 128 129
3 130 94 131
3 132 133 134
3 135 136 137
3 138 6 33
3 139 140 141
3 142 7 6
3 143 144 2
3 145 146 147
3 148 149 150
3 151 152 153
3 154 155 156
3 157 158 159
3 160 161 162
3 163 156 152
3 164 165 166
3 167 168 157
3 169 162 170
3 171 172 173
3 174 166 155
3 167 170 175
3 159 176 171
3 0 10 1
3 3 26 4
3 4 32 6
3 8 177 9
3 11 178 12
3 14 5 15
3 17 179 18
3 20 180 3
3 22 181 8
3 24 182 25
3 27 183 28
3 29 28 30
3 32 184 33
3 37 35 34
3 39 185 40
3 42 186 43
3 45 187 46
3 48 52 49
3 51 188 52
3 53 189 54
3 56 60 57
3 59 190 60
3 61 191 62
3 64 192 65
3 67 193 68
3 70 194 71
3 73 195 74
3 76 196 77
3 79 197 80
3 82 198 83
3 85 199 86
3 88 200 89
3 91 201 92
3 94 97 95
3 97 202 98
3 99 102 100
3 102 104 103
3 104 203 105
3 106 204 107
3 109 205 110
3 112 206 113
3 115 207 116
3 118 208 119
3 121 209 122
3 124 210 125
3 127 211 128
3 130 212 94
3 132 213 133
3 138 142 6
3 139 214 140
3 142 215 7
3 143 216 144
3 145 217 146
3 148 218 149
3 151 163 152
3 154 174 155
3 157 168 158
3 160 151 161
3 163 219 156
3 164 220 165
3 167 175 168
3 169 221 162
3 171 176 172
3 174 164 166
3 167 169 170
3 159 158 176
