ply
format ascii 1.0
comment Created by Blender 2.82 (sub 7) - www.blender.org, source file: 'pr_icon.blend'
element vertex 40
property float x
property float y
property float z
property float nx
property float ny
property float nz
property float s
property float t
property uchar red
property uchar green
property uchar blue
property uchar alpha
element face 34
property list uchar uint vertex_indices
end_header
-0.368011 0.064064 0.000000 0.000000 0.000000 1.000000 0.000000 0.000000 219 211 211 255
-0.368011 0.353279 0.000000 0.000000 0.000000 1.000000 0.000000 0.000000 219 211 211 255
-0.499359 0.486361 0.000000 0.000000 0.000000 1.000000 0.000000 0.000000 213 203 202 255
-0.241428 0.353279 0.000000 0.000000 -0.000000 1.000000 0.000000 0.000000 94 94 94 255
-0.368011 0.064064 0.000000 0.000000 -0.000000 1.000000 0.000000 0.000000 71 71 71 255
0.368027 0.064064 0.000000 0.000000 -0.000000 1.000000 0.000000 0.000000 71 71 71 255
-0.368011 -0.000118 0.000000 0.000000 0.000000 1.000000 0.000000 0.000000 31 31 31 255
-0.241428 -0.347235 0.000000 0.000000 0.000000 1.000000 0.000000 0.000000 0 0 0 255
0.368027 -0.058020 0.000000 0.000000 0.000000 1.000000 0.000000 0.000000 31 31 31 255
0.368027 -0.000118 0.000000 0.000000 0.000000 1.000000 0.000000 0.000000 59 59 59 255
0.498592 -0.439829 0.000000 0.000000 -0.000000 1.000000 0.000000 0.000000 0 0 0 96
-0.174361 -0.629253 0.000000 0.000000 -0.000000 1.000000 0.000000 0.000000 0 0 0 0
0.562778 -0.629253 0.000000 0.000000 -0.000000 1.000000 0.000000 0.000000 0 0 0 0
-0.241428 0.353279 0.000000 -0.000000 -0.000000 1.000000 0.000000 0.000000 219 211 211 255
-0.102285 -0.362511 0.000000 -0.000000 0.000000 1.000000 0.000000 0.000000 214 205 204 255
0.368027 -0.058020 0.000000 -0.000000 0.000000 1.000000 0.000000 0.000000 143 138 138 255
-0.241428 -0.347235 0.000000 -0.000000 0.000000 1.000000 0.000000 0.000000 139 133 132 255
0.368027 -0.000118 0.000000 0.000000 -0.000000 1.000000 0.000000 0.000000 219 211 211 255
0.368027 -0.058020 0.000000 0.000000 -0.000000 1.000000 0.000000 0.000000 219 211 211 255
0.498592 -0.439829 0.000000 0.000000 -0.000000 1.000000 0.000000 0.000000 219 211 211 255
-0.238547 -0.439829 0.000000 0.000000 -0.000000 1.000000 0.000000 0.000000 0 0 0 96
-0.303823 -0.629253 0.000000 0.000000 -0.000000 1.000000 0.000000 0.000000 0 0 0 0
0.498592 0.486361 0.000000 0.000000 -0.000000 1.000000 0.000000 0.000000 219 211 211 255
0.368027 0.064064 0.000000 0.000000 -0.000000 1.000000 0.000000 0.000000 219 211 211 255
0.562778 0.296937 0.000000 0.000000 0.000000 1.000000 0.000000 0.000000 0 0 0 0
0.498592 0.486361 0.000000 0.000000 0.000000 1.000000 0.000000 0.000000 0 0 0 96
-0.368011 -0.347235 0.000000 0.000000 -0.000000 1.000000 0.000000 0.000000 219 211 211 255
-0.499359 -0.439829 0.000000 0.000000 -0.000000 1.000000 0.000000 0.000000 219 211 211 255
-0.368010 -0.439829 0.000000 0.000000 -0.000000 1.000000 0.000000 0.000000 219 211 211 255
-0.368010 -0.439829 0.000000 0.000000 -0.000000 1.000000 0.000000 0.000000 0 0 0 96
-0.435172 -0.629253 0.000000 0.000000 -0.000000 1.000000 0.000000 0.000000 0 0 0 0
-0.238547 -0.439829 0.000000 0.000000 0.000000 1.000000 0.000000 0.000000 219 211 211 255
0.367263 -0.136813 0.000000 0.000000 0.000000 1.000000 0.000000 0.000000 219 211 211 255
-0.368011 -0.000118 0.000000 0.000000 -0.000000 1.000000 0.000000 0.000000 219 211 211 255
-0.368011 0.353279 0.000000 0.000000 0.000000 1.000000 0.000000 0.000000 94 94 94 255
0.368027 -0.000118 0.000000 -0.000000 0.000000 1.000000 0.000000 0.000000 31 31 31 255
-0.368011 -0.347235 0.000000 0.000000 -0.000000 1.000000 0.000000 0.000000 0 0 0 255
-0.368011 -0.000118 0.000000 0.000000 -0.000000 1.000000 0.000000 0.000000 59 59 59 255
-0.499359 -0.439829 0.000000 0.000000 -0.000000 1.000000 0.000000 0.000000 0 0 0 96
-0.368011 -0.347235 0.000000 0.000000 0.000000 1.000000 0.000000 0.000000 143 138 138 255
3 0 1 2
3 3 4 5
3 6 7 8
3 4 9 5
3 10 11 12
3 13 2 1
3 14 15 16
3 17 18 19
3 20 21 11
3 22 13 23
3 10 24 25
3 26 27 28
3 29 30 21
3 31 14 16
3 14 31 19
3 32 19 18
3 2 27 33
3 27 26 33
3 33 0 2
3 3 34 4
3 8 35 6
3 6 36 7
3 4 37 9
3 10 20 11
3 13 22 2
3 14 32 15
3 19 22 17
3 22 23 17
3 20 29 21
3 10 12 24
3 29 38 30
3 39 28 16
3 28 31 16
3 32 14 19
