# Blender v2.80 (sub 75) OBJ File: ''
# www.blender.org
mtllib cube_map.mtl
o cube_map
v 1.000000 1.000000 -1.000000
v 1.000000 -1.000000 -1.000000
v 1.000000 1.000000 1.000000
v 1.000000 -1.000000 1.000000
v -1.000000 1.000000 -1.000000
v -1.000000 -1.000000 -1.000000
v -1.000000 1.000000 1.000000
v -1.000000 -1.000000 1.000000
vt 0.500000 0.333333
vt 0.500000 0.666667
vt 0.000000 0.666667
vt 0.000000 0.333333
vt 0.500000 0.000000
vt 1.000000 0.000000
vt 1.000000 0.333333
vt 0.500000 0.333333
vt 0.000000 0.666667
vt 0.500000 0.666667
vt 0.500000 1.000000
vt 0.000000 1.000000
vt 0.500000 0.333333
vt 1.000000 0.333333
vt 1.000000 0.666667
vt 0.000000 0.000000
vt 0.000000 0.333333
vt 1.000000 1.000000
vn 0.0000 -1.0000 0.0000
vn 0.0000 0.0000 -1.0000
vn 1.0000 0.0000 0.0000
vn 0.0000 1.0000 0.0000
vn -1.0000 0.0000 0.0000
vn 0.0000 0.0000 1.0000
usemtl Material
s off
f 1/1/1 3/2/1 7/3/1 5/4/1
f 4/5/2 8/6/2 7/7/2 3/8/2
f 8/9/3 6/10/3 5/11/3 7/12/3
f 6/10/4 8/13/4 4/14/4 2/15/4
f 2/16/5 4/5/5 3/8/5 1/17/5
f 6/10/6 2/15/6 1/18/6 5/11/6
